<svg xmlns="http://www.w3.org/2000/svg" viewBox="0 0 1400 720" role="img" aria-labelledby="title desc">
<title id="title">DeepSeek Harness Desktop workspace illustration</title><desc id="desc">A native desktop window combines an AI conversation, code editor, file tree, and browser.</desc>
<defs><linearGradient id="b" x2="1" y2="1"><stop stop-color="#090711"/><stop offset=".55" stop-color="#161022"/><stop offset="1" stop-color="#07161a"/></linearGradient><linearGradient id="a" x2="1" y2="1"><stop stop-color="#a855f7"/><stop offset="1" stop-color="#43e5c5"/></linearGradient><filter id="s"><feDropShadow dy="26" stdDeviation="30" flood-opacity=".5"/></filter><pattern id="g" width="38" height="38" patternUnits="userSpaceOnUse"><path d="M38 0H0V38" fill="none" stroke="#fff" stroke-opacity=".035"/></pattern></defs>
<rect width="1400" height="720" rx="34" fill="url(#b)"/><rect width="1400" height="720" rx="34" fill="url(#g)"/>
<g transform="translate(70 70)" filter="url(#s)"><rect width="1260" height="580" rx="30" fill="#0e1117" stroke="#fff" stroke-opacity=".2"/><rect width="1260" height="54" rx="30" fill="#171923"/><path d="M0 54h1260" stroke="#fff" stroke-opacity=".12"/><circle cx="28" cy="27" r="7" fill="#ff6f7d"/><circle cx="52" cy="27" r="7" fill="#ffbf5c"/><circle cx="76" cy="27" r="7" fill="#4de0b8"/><path d="M552 27h156" stroke="#fff" stroke-width="9" stroke-opacity=".18" stroke-linecap="round"/>
<g transform="translate(0 54)"><rect width="420" height="526" fill="#11131b"/><path d="M420 0v526" stroke="#fff" stroke-opacity=".13"/><circle cx="42" cy="42" r="17" fill="url(#a)"/><path d="M72 36h106M72 54h68" stroke="#fff" stroke-width="8" stroke-linecap="round" opacity=".6"/><g transform="translate(28 94)"><rect width="350" height="118" rx="18" fill="#1b1825"/><path d="M22 31h246M22 58h207M22 85h108" stroke="#eadfff" stroke-width="9" stroke-linecap="round" opacity=".67"/></g><g transform="translate(64 236)"><rect width="314" height="144" rx="18" fill="#182129"/><circle cx="30" cy="31" r="11" fill="#43e5c5"/><path d="M51 31h106M26 68h240M26 96h188" stroke="#d8fff7" stroke-width="8" stroke-linecap="round" opacity=".62"/></g><rect x="28" y="446" width="350" height="52" rx="15" fill="#201a2c" stroke="#a855f7" stroke-opacity=".4"/><path d="M52 472h176" stroke="#fff" stroke-width="8" stroke-linecap="round" opacity=".36"/><circle cx="348" cy="472" r="13" fill="#a855f7"/></g>
<g transform="translate(420 54)"><rect width="520" height="526" fill="#0d1118"/><path d="M520 0v526" stroke="#fff" stroke-opacity=".13"/><rect width="520" height="44" fill="#151923"/><path d="M22 22h104M164 22h96" stroke="#fff" stroke-width="8" stroke-linecap="round" opacity=".35"/><g font-family="ui-monospace, monospace" font-size="18"><text x="34" y="92" fill="#8aa4ff">export</text><text x="103" y="92" fill="#d9dfff"> const workspace = {</text><text x="58" y="128" fill="#a8b8d8">agent:</text><text x="132" y="128" fill="#ffb45e"> 'ready'</text><text x="58" y="164" fill="#a8b8d8">tools:</text><text x="128" y="164" fill="#43e5c5"> ['editor', 'browser'],</text><text x="58" y="200" fill="#a8b8d8">context:</text><text x="148" y="200" fill="#caa8ff"> 'shared'</text><text x="34" y="236" fill="#d9dfff">}</text></g><g transform="translate(32 286)"><rect width="456" height="194" rx="18" fill="#141b24"/><path d="M24 34h190M24 68h316M24 102h254" stroke="#fff" stroke-width="9" stroke-linecap="round" opacity=".34"/><path d="M25 150h94" stroke="#43e5c5" stroke-width="10" stroke-linecap="round"/><path d="M145 150h128" stroke="#a855f7" stroke-width="10" stroke-linecap="round"/></g></g>
<g transform="translate(940 54)"><rect width="320" height="526" fill="#10171a"/><rect width="320" height="44" fill="#172125"/><path d="M22 22h70M116 22h172" stroke="#fff" stroke-width="8" stroke-linecap="round" opacity=".32"/><rect x="20" y="64" width="280" height="184" rx="18" fill="#17252a"/><circle cx="64" cy="112" r="24" fill="#43e5c5"/><path d="M102 101h152M102 128h104M42 176h216M42 207h172" stroke="#d6fff7" stroke-width="9" stroke-linecap="round" opacity=".55"/><rect x="20" y="270" width="280" height="226" rx="18" fill="#171a27"/><path d="M44 304h116M44 342h206M44 378h172M44 414h214" stroke="#e7e3ff" stroke-width="9" stroke-linecap="round" opacity=".45"/><circle cx="264" cy="462" r="14" fill="#a855f7"/></g></g>
</svg>
