<svg xmlns="http://www.w3.org/2000/svg" viewBox="0 0 1400 720" role="img" aria-labelledby="title desc">
<title id="title">Octobots mission board illustration</title><desc id="desc">A repository-native campaign tree connects to mission acceptance criteria, workflow gates, and cost reporting.</desc>
<defs><linearGradient id="b" x2="1" y2="1"><stop stop-color="#090d17"/><stop offset=".52" stop-color="#141025"/><stop offset="1" stop-color="#071b19"/></linearGradient><linearGradient id="a" x2="1" y2="1"><stop stop-color="#8aa4ff"/><stop offset=".5" stop-color="#a855f7"/><stop offset="1" stop-color="#43e5c5"/></linearGradient><filter id="s"><feDropShadow dy="22" stdDeviation="26" flood-opacity=".5"/></filter><pattern id="g" width="40" height="40" patternUnits="userSpaceOnUse"><path d="M40 0H0V40" fill="none" stroke="#fff" stroke-opacity=".035"/></pattern></defs>
<rect width="1400" height="720" rx="34" fill="url(#b)"/><rect width="1400" height="720" rx="34" fill="url(#g)"/>
<g transform="translate(74 72)" filter="url(#s)"><rect width="1252" height="576" rx="30" fill="#0f131d" stroke="#fff" stroke-opacity=".18"/><rect width="1252" height="48" rx="30" fill="#181b27"/><path d="M28 24h118" stroke="#fff" stroke-width="8" stroke-linecap="round" opacity=".38"/><path d="M1220 15v18M1211 24h18" stroke="#43e5c5" stroke-width="4" stroke-linecap="round"/>
<g transform="translate(0 48)"><rect width="350" height="528" fill="#111620"/><path d="M350 0v528" stroke="#fff" stroke-opacity=".12"/><text x="28" y="46" fill="#fff" font-family="system-ui" font-size="17" font-weight="700" letter-spacing="2">CAMPAIGNS</text><g transform="translate(24 74)"><rect width="302" height="58" rx="13" fill="#20223a" stroke="#8aa4ff" stroke-opacity=".4"/><circle cx="25" cy="29" r="9" fill="#8aa4ff"/><path d="M46 29h174" stroke="#e4e8ff" stroke-width="9" stroke-linecap="round" opacity=".68"/></g><path d="M54 135v255M54 172h28M54 246h28M54 320h28M54 390h28" fill="none" stroke="#59647d" stroke-width="3"/><g fill="#171f2b"><rect x="82" y="150" width="224" height="48" rx="11"/><rect x="82" y="224" width="224" height="48" rx="11"/><rect x="82" y="298" width="224" height="48" rx="11"/><rect x="82" y="368" width="224" height="48" rx="11"/></g><g stroke="#dce3ff" stroke-width="8" stroke-linecap="round" opacity=".54"><path d="M102 174h142"/><path d="M102 248h116"/><path d="M102 322h158"/><path d="M102 392h128"/></g><circle cx="282" cy="174" r="8" fill="#43e5c5"/><circle cx="282" cy="248" r="8" fill="#a855f7"/><circle cx="282" cy="322" r="8" fill="#ffb45e"/><circle cx="282" cy="392" r="8" fill="#59647d"/></g>
<g transform="translate(350 48)"><rect width="570" height="528" fill="#0e121a"/><path d="M570 0v528" stroke="#fff" stroke-opacity=".12"/><text x="34" y="58" fill="#8aa4ff" font-family="system-ui" font-size="16" font-weight="700">MISSION 03</text><text x="34" y="104" fill="#fff" font-family="system-ui" font-size="31" font-weight="750">Ship the architecture graph</text><path d="M34 133h500" stroke="#fff" stroke-opacity=".12"/><text x="34" y="177" fill="#fff" font-family="system-ui" font-size="18" font-weight="700">Acceptance criteria</text><g transform="translate(34 202)"><g><rect width="502" height="62" rx="14" fill="#17202b"/><circle cx="30" cy="31" r="12" fill="#13352f" stroke="#43e5c5"/><path d="M24 31l5 5 9-12" fill="none" stroke="#43e5c5" stroke-width="4"/><path d="M56 31h362" stroke="#e2e8f4" stroke-width="9" stroke-linecap="round" opacity=".55"/></g><g transform="translate(0 78)"><rect width="502" height="62" rx="14" fill="#17202b"/><circle cx="30" cy="31" r="12" fill="#13352f" stroke="#43e5c5"/><path d="M24 31l5 5 9-12" fill="none" stroke="#43e5c5" stroke-width="4"/><path d="M56 31h310" stroke="#e2e8f4" stroke-width="9" stroke-linecap="round" opacity=".55"/></g><g transform="translate(0 156)"><rect width="502" height="62" rx="14" fill="#1f1b2c"/><circle cx="30" cy="31" r="12" fill="#261838" stroke="#a855f7"/><path d="M56 31h336" stroke="#eadfff" stroke-width="9" stroke-linecap="round" opacity=".55"/></g></g><g transform="translate(34 446)"><path d="M0 0h75" stroke="#43e5c5" stroke-width="8" stroke-linecap="round"/><path d="M100 0h75" stroke="#a855f7" stroke-width="8" stroke-linecap="round"/><path d="M200 0h75" stroke="#8aa4ff" stroke-width="8" stroke-linecap="round"/><path d="M300 0h75" stroke="#ffb45e" stroke-width="8" stroke-linecap="round"/><path d="M400 0h75" stroke="#59647d" stroke-width="8" stroke-linecap="round"/></g><text x="34" y="493" fill="#97a3b8" font-family="system-ui" font-size="14">PLAN</text><text x="134" y="493" fill="#97a3b8" font-family="system-ui" font-size="14">BUILD</text><text x="234" y="493" fill="#97a3b8" font-family="system-ui" font-size="14">QA</text><text x="334" y="493" fill="#97a3b8" font-family="system-ui" font-size="14">REVIEW</text><text x="434" y="493" fill="#97a3b8" font-family="system-ui" font-size="14">LAND</text></g>
<g transform="translate(920 48)"><rect width="332" height="528" fill="#10171a"/><text x="28" y="54" fill="#fff" font-family="system-ui" font-size="18" font-weight="700">Mission signals</text><g transform="translate(24 82)"><rect width="284" height="118" rx="18" fill="#17262a"/><text x="24" y="42" fill="#86f2dc" font-family="system-ui" font-size="15" font-weight="700">COMPLETION</text><text x="24" y="89" fill="#fff" font-family="system-ui" font-size="39" font-weight="800">68%</text><path d="M135 82h116" stroke="#fff" stroke-opacity=".13" stroke-width="10" stroke-linecap="round"/><path d="M135 82h79" stroke="#43e5c5" stroke-width="10" stroke-linecap="round"/></g><g transform="translate(24 218)"><rect width="284" height="118" rx="18" fill="#20192c"/><text x="24" y="42" fill="#d5b4ff" font-family="system-ui" font-size="15" font-weight="700">TOKENS</text><text x="24" y="89" fill="#fff" font-family="system-ui" font-size="37" font-weight="800">184k</text><path d="M148 89l18-24 22 10 20-35 24 14 26-30" fill="none" stroke="#a855f7" stroke-width="5" stroke-linecap="round" stroke-linejoin="round"/></g><g transform="translate(24 354)"><rect width="284" height="142" rx="18" fill="#171f2b"/><text x="24" y="38" fill="#a9b8d5" font-family="system-ui" font-size="15" font-weight="700">CO-CHANGE GRAPH</text><circle cx="76" cy="91" r="13" fill="#8aa4ff"/><circle cx="145" cy="70" r="11" fill="#a855f7"/><circle cx="218" cy="96" r="15" fill="#43e5c5"/><path d="M88 87l46-14M155 74l49 17M88 96l115 0" stroke="#bdc8e0" stroke-opacity=".5" stroke-width="3"/></g></g></g>
</svg>
